/* XPM */
static char * alexandria_xpm[] = {
"32 32 206 2",
"  	c None",
". 	c #A66601",
"+ 	c #A76702",
"@ 	c #A96C0C",
"# 	c #D2A763",
"$ 	c #DEB980",
"% 	c #CEA15B",
"& 	c #A66908",
"* 	c #A16401",
"= 	c #AF7720",
"- 	c #D8B172",
"; 	c #D5A65E",
"> 	c #CB9237",
", 	c #CB9136",
"' 	c #CC9339",
") 	c #D7AB64",
"! 	c #D6AE6E",
"~ 	c #AA7116",
"{ 	c #A26402",
"] 	c #A06201",
"^ 	c #BD8A3C",
"/ 	c #DBB578",
"( 	c #D19E4D",
"_ 	c #D2A154",
": 	c #DBB478",
"< 	c #B5802F",
"[ 	c #9B5F01",
"} 	c #D8AC68",
"| 	c #C4841D",
"1 	c #C17D11",
"2 	c #C68825",
"3 	c #9B6001",
"4 	c #985E01",
"5 	c #8F5902",
"6 	c #955C01",
"7 	c #3E2600",
"8 	c #959792",
"9 	c #444642",
"0 	c #4D2F00",
"a 	c #965C01",
"b 	c #925A01",
"c 	c #4E2F00",
"d 	c #BABDB6",
"e 	c #555753",
"f 	c #603B00",
"g 	c #935B01",
"h 	c #905901",
"i 	c #8D5701",
"j 	c #8A5501",
"k 	c #553400",
"l 	c #6C4301",
"m 	c #643E01",
"n 	c #573500",
"o 	c #8A5601",
"p 	c #875401",
"q 	c #885401",
"r 	c #845201",
"s 	c #855201",
"t 	c #825001",
"u 	c #825101",
"v 	c #7F4F01",
"w 	c #7D4E01",
"x 	c #B7BAB4",
"y 	c #62635F",
"z 	c #868682",
"A 	c #797A76",
"B 	c #7A7469",
"C 	c #5B4727",
"D 	c #5B4826",
"E 	c #837A68",
"F 	c #848075",
"G 	c #918A7B",
"H 	c #7C602E",
"I 	c #6A6C67",
"J 	c #7C7D79",
"K 	c #959693",
"L 	c #D7D8D7",
"M 	c #F1F1F1",
"N 	c #D3D4D1",
"O 	c #989791",
"P 	c #918F8A",
"Q 	c #CBCCCA",
"R 	c #DEDEDD",
"S 	c #C8C8C7",
"T 	c #989790",
"U 	c #858682",
"V 	c #878784",
"W 	c #3B3A31",
"X 	c #757672",
"Y 	c #ECECEC",
"Z 	c #FFFFFF",
"` 	c #FDFDFD",
" .	c #E6E7E4",
"..	c #CBCDC8",
"+.	c #BCBEB9",
"@.	c #E2E3E1",
"#.	c #E8E8E8",
"$.	c #E4E4E4",
"%.	c #E3E3E3",
"&.	c #D6D6D6",
"*.	c #878884",
"=.	c #303537",
"-.	c #2E3436",
";.	c #777874",
">.	c #FCFCFC",
",.	c #CBCDC7",
"'.	c #BBBDB8",
").	c #E1E1DF",
"!.	c #E7E7E7",
"~.	c #8A8B87",
"{.	c #7A7B77",
"].	c #FAFBFA",
"^.	c #E4E6E2",
"/.	c #CACDC7",
"(.	c #B9BCB6",
"_.	c #DFE0DE",
":.	c #E6E6E6",
"<.	c #8E8F8B",
"[.	c #4E3000",
"}.	c #7E7F7B",
"|.	c #FEFEFE",
"1.	c #F9F9F9",
"2.	c #E4E5E2",
"3.	c #C9CBC6",
"4.	c #B9BAB6",
"5.	c #DDDEDC",
"6.	c #E5E5E5",
"7.	c #91928E",
"8.	c #613C00",
"9.	c #81827E",
"0.	c #F8F8F8",
"a.	c #E2E4E1",
"b.	c #C8CBC5",
"c.	c #B7B9B4",
"d.	c #DCDDDB",
"e.	c #959692",
"f.	c #F7F7F7",
"g.	c #E2E4E0",
"h.	c #B5B7B2",
"i.	c #DBDCDA",
"j.	c #989995",
"k.	c #623C01",
"l.	c #6B4301",
"m.	c #888985",
"n.	c #FBFBFB",
"o.	c #F6F6F6",
"p.	c #E1E3DF",
"q.	c #C7CAC4",
"r.	c #B3B5B0",
"s.	c #D9DAD8",
"t.	c #9C9D99",
"u.	c #8C8D89",
"v.	c #FAFAFA",
"w.	c #F6F6F5",
"x.	c #E6E7E5",
"y.	c #B3B6B0",
"z.	c #DCDDDC",
"A.	c #90918D",
"B.	c #F4F4F4",
"C.	c #BEBFBC",
"D.	c #999A96",
"E.	c #A3A4A0",
"F.	c #CECFCD",
"G.	c #C8C9C6",
"H.	c #A5A6A1",
"I.	c #9E9F9B",
"J.	c #9FA19D",
"K.	c #BABBB9",
"L.	c #DCDCDC",
"M.	c #C17E12",
"N.	c #C17E13",
"O.	c #C27F14",
"P.	c #C27F15",
"Q.	c #939490",
"R.	c #9A9B98",
"S.	c #B1B3AE",
"T.	c #C5C8C1",
"U.	c #C6C9C2",
"V.	c #BABCB6",
"W.	c #A5A7A3",
"X.	c #A5A6A2",
"Y.	c #B8BBB5",
"Z.	c #A8AAA5",
"`.	c #9FA09C",
" +	c #D7AC67",
".+	c #D7AB66",
"++	c #D7AB65",
"@+	c #D7AA64",
"#+	c #AEB1AC",
"$+	c #CED1CA",
"%+	c #D3D7CF",
"&+	c #D1D5CD",
"*+	c #CED2CA",
"=+	c #CBCFC7",
"-+	c #C8CCC4",
";+	c #C5C9C2",
">+	c #C2C5BF",
",+	c #BCBFB9",
"'+	c #50524F",
")+	c #3A3D3A",
"!+	c #3E403D",
"~+	c #545653",
"{+	c #2F3536",
"]+	c #292E2F",
"^+	c #2E3335",
"/+	c #2F3537",
"                                                                ",
"              . . . . . . . . . . . . . . . . . +               ",
"            @ # $ $ $ $ $ $ $ $ $ $ $ $ $ $ $ $ % &             ",
"        * = - ; > , , , , , , , , , , , , , , ' ) ! ~ {         ",
"      ] ^ / ( , , , , , , , , , , , , , , , , , , _ : < ]       ",
"      [ } | 1 1 1 1 1 1 1 1 1 1 1 1 1 1 1 1 1 1 1 1 2 } 3       ",
"      4 } 1 5 5 5 5 5 5 5 5 5 5 5 5 5 5 5 5 5 5 5 5 1 } 4       ",
"      6 } 1 5 7 8 9 8 9 8 9 8 9 8 9 8 9 8 9 0 7 7 5 1 } a       ",
"      b } 1 5 c d e d e d e d e d e d e d e f c c 5 1 } g       ",
"      h } 1 5 c d e d e d e d e d e d e d e f c c 5 1 } h       ",
"      i } 1 5 c d e d e d e d e d e d e d e f c c 5 1 } i       ",
"      j } 1 5 k d e d e d e d e d e d e d e l m n 5 1 } o       ",
"      p } 1 5 5 5 5 5 5 5 5 5 5 5 5 5 5 5 5 5 5 5 5 1 } q       ",
"      r } 1 1 1 1 1 1 1 1 1 1 1 1 1 1 1 1 1 1 1 1 1 1 } s       ",
"      t } 1 5 5 5 5 5 5 5 5 5 5 5 5 5 5 5 5 5 5 5 5 1 } u       ",
"      v } 1 5 7 8 9 8 9 8 9 8 9 8 9 8 9 8 9 0 7 7 5 1 } v       ",
"      w } 1 5 c d e d e d e d e d e d e d e f c c 5 1 } w       ",
"      w } 1 5 c d e d e d e d e d e x y z A B C D E F G H       ",
"      w } 1 5 k d e d e d e d e d I J K L M N O P Q R S T U V   ",
"      w } 1 5 5 5 5 5 5 5 5 5 5 W X Y Z Z `  ...+.@.#.$.%.&.*.=.",
"      w } 1 1 1 1 1 1 1 1 1 1 1 -.;.Z Z Z >. .,.'.).!.%.%.%.~.-.",
"      w } 1 5 5 5 5 5 5 5 5 5 5 -.{.Z Z Z ].^./.(._.:.%.%.%.<.-.",
"      w } 1 5 7 7 [.8 9 8 9 8 9 -.}.Z Z |.1.2.3.4.5.6.%.%.%.7.-.",
"      w } 1 5 c c 8.d e d e d e -.9.Z Z ` 0.a.b.c.d.$.%.%.%.e.-.",
"      w } 1 5 c c 8.d e d e d e -.U Z Z >.f.g.b.h.i.%.%.%.%.j.-.",
"      w } 1 5 k k.l.d e d e d e -.m.Z Z n.o.p.q.r.s.%.%.%.%.t.-.",
"      w } 1 5 5 5 5 5 5 5 5 5 5 -.u.Z |.v.w.x.q.y.z.%.%.%.%.t.-.",
"      w } 1 1 1 1 1 1 1 1 1 1 1 -.A.B.C.D.D.E.F.G.H.I.J.K.L.t.-.",
"      w } 1 1 M.M.M.N.O.O.O.P.P.-.Q.R.S.T.U.V.W.X.y.Y.y.Z.`.t.-.",
"      w } }  + + +.+.+++++++@+@+-.#+$+%+%+%+%+&+*+=+-+;+>+,+Z.-.",
"      w w w w w w w w w w w w w -.e e e '+)+!+~+~+!+)+'+e e e -.",
"                                {+-.-.-.{+]+^+-.-.^+]+{+-.-.-./+"};
